<svg width="767" height="490" viewBox="0 0 767 490" fill="none" xmlns="http://www.w3.org/2000/svg">
<g clip-path="url(#clip0_2_147)">
<path d="M509.935 443.609C514.368 443.609 517.962 440.019 517.962 435.591C517.962 431.162 514.368 427.572 509.935 427.572C505.502 427.572 501.908 431.162 501.908 435.591C501.908 440.019 505.502 443.609 509.935 443.609Z" fill="#E6E6E6"/>
<path d="M543.381 443.609C547.815 443.609 551.409 440.019 551.409 435.591C551.409 431.162 547.815 427.572 543.381 427.572C538.948 427.572 535.354 431.162 535.354 435.591C535.354 440.019 538.948 443.609 543.381 443.609Z" fill="#E6E6E6"/>
<path d="M576.828 443.609C581.261 443.609 584.855 440.019 584.855 435.591C584.855 431.162 581.261 427.572 576.828 427.572C572.395 427.572 568.801 431.162 568.801 435.591C568.801 440.019 572.395 443.609 576.828 443.609Z" fill="#E6E6E6"/>
<path d="M524.915 488.371H30.6328V490.001H524.915V488.371Z" fill="#E6E6E6"/>
<path d="M119.057 439.758C117.79 431.595 115.317 423.664 111.719 416.226L111.195 415.142L107.3 419.457L110.186 413.03L109.997 412.658C107.45 407.621 104.627 402.729 101.542 398.003L100.97 397.128L100.206 397.973L100.741 396.783L100.473 396.382C96.6516 390.656 93.7157 387.035 93.6866 386.998L92.8563 385.978L92.3223 387.195C92.2244 387.418 82.5206 409.754 81.2352 431.826L81.2149 432.17L87.7458 440.056L81.0854 435.879L81.097 437.395C81.1172 439.989 81.294 442.579 81.6262 445.152C81.9195 447.365 82.2648 449.526 82.6619 451.634C83.2915 451.654 83.9039 451.845 84.4329 452.186C83.9728 449.83 83.5761 447.409 83.2426 444.923C82.9853 442.938 82.8232 440.921 82.7587 438.91L95.6414 446.99L82.8838 431.585C84.0453 412.924 91.2548 394.123 93.2788 389.161C94.3651 390.568 96.4143 393.3 98.8656 396.95L94.4093 406.874L100.763 399.837C103.517 404.12 106.054 408.538 108.365 413.076L101.503 428.357L110.781 418.08C114.021 425.041 116.265 432.424 117.444 440.01C119.068 452.263 118.751 464.034 116.551 473.154C114.445 481.892 110.731 487.262 106.363 487.889C105.464 488.013 104.55 487.959 103.672 487.729C102.968 488.229 102.121 488.487 101.257 488.465H101.019C102.374 489.217 103.893 489.624 105.442 489.652C105.825 489.652 106.207 489.625 106.586 489.57C111.721 488.833 115.823 483.15 118.133 473.568C120.382 464.241 120.712 452.241 119.057 439.758Z" fill="#E6E6E6"/>
<path d="M104.685 489.007C97.9675 489.007 88.2825 485.316 78.6762 478.597C77.2623 477.6 75.9121 476.515 74.6337 475.35L73.5578 474.368L77.6258 473.198L72.209 473L71.9805 472.761C61.8271 462.138 55.5088 447.134 55.4459 446.985L54.9521 445.799L56.236 445.857C56.3638 445.863 59.416 446.007 64.0033 446.657L64.2892 446.698V446.695L65.2951 446.848C69.041 447.417 72.7519 448.196 76.4101 449.181L76.8007 449.287L78.0212 452.29L77.8361 449.597L78.9558 449.92C84.2631 451.45 89.3039 453.784 93.9024 456.842C108.511 467.06 116.595 479.832 112.322 485.928C110.861 488.011 108.172 489.006 104.685 489.007ZM76.8405 475.119C77.7329 475.874 78.6615 476.593 79.614 477.263C92.994 486.623 107.36 490.162 110.985 484.994C114.609 479.824 106.365 467.548 92.9828 458.188C88.8543 455.444 84.3564 453.301 79.6239 451.822L80.3475 462.344L75.5945 450.65C72.4643 449.82 69.2619 449.138 66.056 448.616L66.5812 456.254L63.3099 448.205C60.7754 447.858 58.7322 447.669 57.4894 447.573C59.1838 451.29 64.7825 462.767 72.9325 471.396L87.881 471.943L76.8405 475.119Z" fill="#E6E6E6"/>
<path d="M183.552 477.666H194.54L199.767 435.332L183.551 435.333L183.552 477.666Z" fill="#A0616A"/>
<path d="M180.75 474.083L202.388 474.082H202.389C206.046 474.083 209.553 475.534 212.139 478.117C214.725 480.7 216.178 484.204 216.179 487.857V488.304L180.751 488.306L180.75 474.083Z" fill="#2F2E41"/>
<path d="M256.134 477.666H267.121L272.349 435.332L256.132 435.333L256.134 477.666Z" fill="#A0616A"/>
<path d="M253.331 474.083L274.969 474.082H274.97C278.627 474.083 282.135 475.534 284.721 478.117C287.307 480.7 288.76 484.204 288.76 487.857V488.304L253.332 488.306L253.331 474.083Z" fill="#2F2E41"/>
<path d="M174.353 468.486H202.815L221.007 309.368L254.455 468.486H273.659V278.743L182.351 251.446L174.353 468.486Z" fill="#2F2E41"/>
<path d="M222.883 111.444C236.591 111.444 247.704 100.343 247.704 86.6494C247.704 72.9559 236.591 61.855 222.883 61.855C209.175 61.855 198.062 72.9559 198.062 86.6494C198.062 100.343 209.175 111.444 222.883 111.444Z" fill="#A0616A"/>
<path d="M184.35 255.44C210.983 276.247 240.381 286.734 273.659 282.737C259.604 233.442 255.436 184.52 268.994 136.268L241.001 123.618L209.536 121.621L186.667 128.34C183.45 129.286 180.633 131.263 178.651 133.965C176.669 136.667 175.631 139.945 175.697 143.295C176.505 184.445 173.766 222.956 184.35 255.44Z" fill="#E6E6E6"/>
<path d="M199.127 74.182C201.515 69.6815 204.549 60.712 209.369 59.0485C212.046 58.162 214.812 57.5733 217.618 57.2932L225.81 60.4407L221.351 56.9767C222.219 56.925 223.087 56.8828 223.954 56.85L229.482 58.9736L226.654 56.7765C231.807 56.7237 237.126 57.2589 241.119 60.3926C244.523 63.064 247.895 73.1839 248.441 77.4735C249.024 81.5771 248.82 85.7541 247.839 89.7815L246.44 91.1111C245.95 89.9896 245.582 88.8189 245.341 87.6191C244.84 85.3774 243.876 83.2646 242.511 81.4156C241.147 79.5665 239.412 78.0216 237.417 76.8795L237.34 76.8365C234.993 75.5166 232.144 75.5775 229.451 75.6743L216.665 76.1339C213.588 76.2445 210.276 76.4389 207.877 78.3666C206.258 79.6684 205.287 81.5901 204.364 83.4508C203.172 85.8536 200.843 94.9162 200.843 94.9162C200.843 94.9162 199.526 93.2055 198.894 94.4788C197.882 91.1568 197.266 87.7268 197.06 84.2602C196.859 80.7783 197.571 77.3042 199.127 74.182Z" fill="#2F2E41"/>
<path d="M199.961 271.695C199.956 270.452 199.677 269.226 199.146 268.103C198.614 266.98 197.843 265.986 196.885 265.193C195.928 264.4 194.808 263.826 193.605 263.512C192.402 263.198 191.144 263.151 189.92 263.375L175.025 237.093L168.878 249.677L183.114 273.882C183.627 275.91 184.867 277.68 186.598 278.856C188.33 280.032 190.434 280.533 192.51 280.263C194.587 279.994 196.492 278.973 197.866 277.393C199.239 275.814 199.985 273.787 199.961 271.695V271.695Z" fill="#A0616A"/>
<path d="M266.566 300.912C265.978 299.817 265.638 298.606 265.569 297.366C265.5 296.125 265.704 294.885 266.167 293.731C266.63 292.578 267.34 291.54 268.248 290.691C269.156 289.842 270.239 289.202 271.422 288.816L271.972 258.619L284.929 267.497L282.419 294.811C282.937 296.838 282.692 298.984 281.731 300.843C280.77 302.701 279.16 304.143 277.206 304.895C275.251 305.647 273.089 305.657 271.128 304.923C269.167 304.189 267.544 302.761 266.566 300.912H266.566Z" fill="#A0616A"/>
<path d="M176.352 268.089L187.016 258.103L181.543 204.176L187.875 127.945C174.121 132.263 159.353 143.863 156.92 158.058L148.219 208.836L176.352 268.089Z" fill="#E6E6E6"/>
<path opacity="0.2" d="M182.544 175.215L173.879 209.835L187.016 258.961L178.544 212.498L182.544 175.215Z" fill="black"/>
<path d="M268.327 286.73L285.656 288.728L281.599 160.19C281.417 154.446 279.584 148.877 276.318 144.146C273.052 139.416 268.492 135.725 263.182 133.515L256.997 130.941L258.663 191.193L268.327 286.73Z" fill="#E6E6E6"/>
<path opacity="0.2" d="M261.84 193.164L268.528 267.347L257.203 193.681L261.84 193.164Z" fill="black"/>
</g>
<defs>
<clipPath id="clip0_2_147">
<rect width="767" height="490" fill="white"/>
</clipPath>
</defs>
</svg>
