<svg width="320" height="245" viewBox="0 0 320 245" fill="none" xmlns="http://www.w3.org/2000/svg">
<path d="M124.614 23.6356H287.659C288.079 23.6356 288.448 23.6622 288.702 23.7017C288.716 23.7038 288.729 23.706 288.742 23.7082V56.9698C288.729 56.9719 288.716 56.9741 288.702 56.9763C288.448 57.0158 288.079 57.0424 287.659 57.0424H124.614C124.195 57.0424 123.826 57.0158 123.572 56.9763C123.558 56.9741 123.544 56.9719 123.531 56.9698V23.7082C123.544 23.706 123.558 23.7038 123.572 23.7017C123.826 23.6622 124.195 23.6356 124.614 23.6356ZM288.953 23.7582C288.953 23.7582 288.952 23.7578 288.95 23.757C288.952 23.7577 288.953 23.7581 288.953 23.7582ZM123.321 56.9198C123.321 56.9198 123.322 56.9202 123.323 56.921C123.321 56.9203 123.32 56.9198 123.321 56.9198ZM123.321 23.7582C123.32 23.7581 123.321 23.7577 123.323 23.7569C123.322 23.7578 123.321 23.7582 123.321 23.7582Z" fill="white" stroke="#CACACA"/>
<path d="M124.614 62.7881H287.659C288.079 62.7881 288.448 62.8148 288.702 62.8542C288.716 62.8564 288.729 62.8586 288.742 62.8607V96.1223C288.729 96.1245 288.716 96.1267 288.702 96.1288C288.448 96.1683 288.079 96.1949 287.659 96.1949H124.614C124.195 96.1949 123.826 96.1683 123.572 96.1288C123.558 96.1267 123.544 96.1245 123.531 96.1223V62.8607C123.544 62.8586 123.558 62.8564 123.572 62.8542C123.826 62.8148 124.195 62.7881 124.614 62.7881ZM288.953 62.9107C288.953 62.9107 288.952 62.9103 288.95 62.9095C288.952 62.9103 288.953 62.9107 288.953 62.9107ZM123.321 96.0723C123.321 96.0723 123.322 96.0727 123.323 96.0736C123.321 96.0728 123.32 96.0724 123.321 96.0723ZM123.321 62.9107C123.32 62.9107 123.321 62.9103 123.323 62.9095C123.322 62.9103 123.321 62.9107 123.321 62.9107Z" fill="white" stroke="#CACACA"/>
<path d="M124.614 104.907H287.659C288.079 104.907 288.448 104.933 288.702 104.973C288.716 104.975 288.729 104.977 288.742 104.979V138.241C288.729 138.243 288.716 138.245 288.702 138.247C288.448 138.287 288.079 138.314 287.659 138.314H124.614C124.195 138.314 123.826 138.287 123.572 138.247C123.558 138.245 123.544 138.243 123.531 138.241V104.979C123.544 104.977 123.558 104.975 123.572 104.973C123.826 104.933 124.195 104.907 124.614 104.907ZM288.953 105.029C288.953 105.029 288.952 105.029 288.95 105.028C288.952 105.029 288.953 105.029 288.953 105.029ZM123.321 138.191C123.321 138.191 123.322 138.191 123.323 138.192C123.321 138.191 123.32 138.191 123.321 138.191ZM123.321 105.029C123.32 105.029 123.321 105.029 123.323 105.028C123.322 105.029 123.321 105.029 123.321 105.029Z" fill="white" stroke="#CACACA"/>
<path d="M270.09 43.3228H153.798C153.012 43.3228 152.257 43.0094 151.701 42.4514C151.144 41.8935 150.832 41.1368 150.832 40.3478C150.832 39.5588 151.144 38.8021 151.701 38.2442C152.257 37.6863 153.012 37.3729 153.798 37.3729H270.09C270.877 37.3729 271.632 37.6863 272.188 38.2442C272.744 38.8021 273.057 39.5588 273.057 40.3478C273.057 41.1368 272.744 41.8935 272.188 42.4514C271.632 43.0094 270.877 43.3228 270.09 43.3228Z" fill="#E6E6E6"/>
<path d="M270.09 82.4753H153.798C153.012 82.4753 152.257 82.1619 151.701 81.604C151.144 81.0461 150.832 80.2894 150.832 79.5004C150.832 78.7114 151.144 77.9547 151.701 77.3968C152.257 76.8389 153.012 76.5254 153.798 76.5254H270.09C270.877 76.5254 271.632 76.8389 272.188 77.3968C272.744 77.9547 273.057 78.7114 273.057 79.5004C273.057 80.2894 272.744 81.0461 272.188 81.604C271.632 82.1619 270.877 82.4753 270.09 82.4753Z" fill="#E6E6E6"/>
<path d="M270.09 124.594H153.798C153.012 124.594 152.257 124.281 151.701 123.723C151.144 123.165 150.832 122.408 150.832 121.619C150.832 120.83 151.144 120.073 151.701 119.515C152.257 118.958 153.012 118.644 153.798 118.644H270.09C270.877 118.644 271.632 118.958 272.188 119.515C272.744 120.073 273.057 120.83 273.057 121.619C273.057 122.408 272.744 123.165 272.188 123.723C271.632 124.281 270.877 124.594 270.09 124.594Z" fill="#E6E6E6"/>
<path d="M289.05 45.742C301.646 45.742 311.857 35.5023 311.857 22.871C311.857 10.2397 301.646 0 289.05 0C276.454 0 266.243 10.2397 266.243 22.871C266.243 35.5023 276.454 45.742 289.05 45.742Z" fill="#16ABF8"/>
<path d="M279.548 21.3614C279.148 21.3614 278.766 21.5204 278.483 21.8034C278.201 22.0865 278.042 22.4704 278.042 22.8707C278.042 23.271 278.201 23.6549 278.483 23.9379C278.766 24.221 279.148 24.38 279.548 24.38H287.546V32.4C287.546 32.7997 287.705 33.1826 287.988 33.4649C288.27 33.7471 288.652 33.9057 289.05 33.9057C289.449 33.9057 289.831 33.7471 290.113 33.4649C290.395 33.1826 290.554 32.7997 290.555 32.4V24.38H298.553C298.952 24.38 299.335 24.221 299.618 23.9379C299.9 23.6549 300.058 23.271 300.058 22.8707C300.058 22.4704 299.9 22.0865 299.618 21.8034C299.335 21.5204 298.952 21.3614 298.553 21.3614H290.555V13.3409C290.555 12.9407 290.397 12.5568 290.115 12.2738C289.832 11.9908 289.45 11.8318 289.05 11.8318C288.651 11.8318 288.269 11.9908 287.986 12.2738C287.704 12.5568 287.546 12.9407 287.546 13.3409V21.3614H279.548Z" fill="white"/>
<path d="M320 244.207H0V245H320V244.207Z" fill="#CACACA"/>
<path d="M267.395 226.118C268.867 226.637 270.447 226.767 271.983 226.495C273.519 226.224 274.96 225.56 276.166 224.569C279.238 221.983 280.201 217.723 280.985 213.779L283.303 202.112L278.451 205.462C274.961 207.872 271.392 210.359 268.975 213.85C266.559 217.34 265.504 222.105 267.446 225.882" fill="#E6E6E6"/>
<path d="M268.145 241.055C267.532 236.592 266.905 232.073 267.334 227.562C267.715 223.555 268.934 219.643 271.415 216.435C272.732 214.735 274.334 213.279 276.15 212.132C276.625 211.832 277.06 212.585 276.588 212.883C273.446 214.874 271.016 217.815 269.648 221.281C268.137 225.135 267.894 229.337 268.154 233.431C268.313 235.907 268.646 238.367 268.982 240.824C269.008 240.935 268.992 241.052 268.936 241.151C268.879 241.251 268.788 241.325 268.679 241.359C268.568 241.389 268.45 241.374 268.35 241.318C268.25 241.261 268.176 241.166 268.145 241.055H268.145Z" fill="#F2F2F2"/>
<path d="M264.682 234.389C263.933 235.277 262.968 235.956 261.88 236.361C260.793 236.767 259.62 236.884 258.474 236.703C255.533 236.203 253.318 233.833 251.335 231.598L245.471 224.988L249.842 225.307C252.985 225.537 256.207 225.787 259.067 227.115C261.926 228.443 264.39 231.101 264.561 234.257" fill="#E6E6E6"/>
<path d="M269.714 243.607C268.683 241.12 267.644 238.598 266.063 236.401C264.707 234.411 262.813 232.85 260.604 231.9C259.413 231.422 258.147 231.157 256.864 231.116C256.53 231.105 256.532 231.626 256.864 231.637C259.086 231.711 261.226 232.491 262.977 233.864C264.919 235.393 266.311 237.487 267.411 239.677C268.076 241.002 268.646 242.372 269.213 243.741C269.233 243.806 269.277 243.861 269.335 243.896C269.394 243.93 269.463 243.94 269.53 243.925C269.596 243.907 269.652 243.864 269.687 243.804C269.721 243.744 269.731 243.673 269.714 243.607Z" fill="#F2F2F2"/>
<path d="M272.541 233.895C273.172 234.857 274.04 235.64 275.06 236.168C276.081 236.696 277.22 236.952 278.367 236.91C281.316 236.77 283.775 234.705 285.988 232.745L292.534 226.949L288.202 226.741C285.086 226.592 281.89 226.452 278.922 227.415C275.955 228.379 273.218 230.698 272.675 233.778" fill="#E6E6E6"/>
<path d="M266.418 243.621C269.358 238.403 272.769 232.604 278.864 230.75C280.559 230.237 282.336 230.052 284.099 230.208C284.655 230.256 284.516 231.115 283.961 231.067C281.005 230.821 278.055 231.604 275.607 233.284C273.252 234.892 271.417 237.127 269.865 239.498C268.916 240.95 268.062 242.464 267.21 243.975C266.938 244.458 266.142 244.11 266.418 243.621Z" fill="#F2F2F2"/>
<path d="M312.335 235.488C311.199 235.889 309.98 235.989 308.794 235.78C307.609 235.57 306.497 235.058 305.566 234.293C303.195 232.297 302.452 229.01 301.848 225.966L300.059 216.962L303.805 219.548C306.498 221.408 309.252 223.327 311.117 226.02C312.981 228.714 313.796 232.392 312.297 235.306" fill="#E6E6E6"/>
<path d="M311.301 244.035C311.63 241.628 311.969 239.191 311.738 236.759C311.588 234.59 310.825 232.509 309.538 230.759C308.827 229.843 307.963 229.057 306.984 228.439C306.728 228.277 306.493 228.683 306.747 228.844C308.441 229.917 309.752 231.503 310.489 233.372C311.304 235.451 311.435 237.716 311.295 239.924C311.21 241.259 311.03 242.585 310.848 243.91C310.834 243.97 310.843 244.033 310.873 244.086C310.904 244.14 310.953 244.18 311.012 244.198C311.072 244.214 311.135 244.206 311.189 244.175C311.243 244.144 311.283 244.094 311.3 244.034L311.301 244.035Z" fill="#F2F2F2"/>
<ellipse cx="140.185" cy="40.339" rx="2.95749" ry="2.9661" fill="#E5E5E5"/>
<ellipse cx="140.185" cy="79.4915" rx="2.95749" ry="2.9661" fill="#E5E5E5"/>
<ellipse cx="140.185" cy="121.61" rx="2.95749" ry="2.9661" fill="#E5E5E5"/>
<path d="M130.48 106.259C130.08 105.627 129.555 105.089 128.938 104.68C128.321 104.27 127.627 103.999 126.9 103.883C126.174 103.767 125.431 103.81 124.722 104.008C124.012 104.206 123.352 104.555 122.783 105.032C122.604 105.184 122.436 105.348 122.279 105.524L101.762 102.471L100.62 86.696C100.533 85.4859 99.9785 84.3608 99.0798 83.5682C98.181 82.7757 97.0111 82.3807 95.8275 82.4701C94.6439 82.5595 93.5435 83.1259 92.7684 84.0449C91.9933 84.9638 91.6069 86.1599 91.6943 87.3701C91.6964 87.3982 91.6987 87.4262 91.7012 87.4542L93.7012 109.589L93.7108 109.638C93.9711 110.489 94.4928 111.231 95.1983 111.755C95.9039 112.279 96.7559 112.556 97.6277 112.545L121.76 112.119C121.854 112.266 121.955 112.407 122.063 112.542C122.53 113.123 123.111 113.597 123.77 113.932C124.428 114.267 125.148 114.456 125.883 114.487C126.618 114.518 127.351 114.389 128.034 114.11C128.716 113.831 129.334 113.408 129.846 112.868C129.95 112.759 130.048 112.647 130.141 112.531C130.837 111.655 131.244 110.577 131.305 109.451C131.365 108.324 131.077 107.207 130.48 106.259Z" fill="#FFB7B7"/>
<path d="M89.317 238.475L94.928 238.474L97.5972 215.339L89.3162 215.339L89.317 238.475Z" fill="#FFB7B7"/>
<path d="M87.5421 243.814L106.47 243.813V243.57C106.47 241.589 105.693 239.69 104.312 238.289C102.93 236.889 101.056 236.102 99.1026 236.102H99.1021L87.5418 236.102L87.5421 243.814Z" fill="#2F2E41"/>
<path d="M47.9114 233.036L53.6326 234.915L63.8818 214.554L55.4375 211.78L47.9114 233.036Z" fill="#FFB7B7"/>
<path d="M44.9539 237.822L62.8199 243.814L62.897 243.591C63.5259 241.778 63.3966 239.793 62.5373 238.074C61.6781 236.354 60.1593 235.041 58.3151 234.422L58.3147 234.422L47.4027 230.763L44.9539 237.822Z" fill="#2F2E41"/>
<path d="M82.7427 39.8985C82.7427 39.8985 88.5238 37.9538 92.2401 45.7326C95.9565 53.5114 101.738 62.068 101.738 62.068L98.4341 62.8459C98.4341 62.8459 97.6083 57.4007 95.5436 56.6229L96.3694 63.6238C96.3694 63.6238 71.5935 71.7915 60.4443 62.8459L60.8573 60.1233C60.8573 60.1233 59.2055 60.5123 59.2055 62.8459L57.9668 61.6791C57.9668 61.6791 59.2055 59.3455 62.922 56.2339C65.3612 54.1917 66.1995 50.3063 66.4875 47.8771C66.716 45.8205 67.5818 43.8915 68.9594 42.37C71.4291 39.674 75.9293 36.8086 82.7427 39.8985Z" fill="#2F2E41"/>
<path d="M80.4436 67.0339C74.5635 67.0339 69.7967 62.2532 69.7967 56.3559C69.7967 50.4587 74.5635 45.678 80.4436 45.678C86.3238 45.678 91.0906 50.4587 91.0906 56.3559C91.0906 62.2532 86.3238 67.0339 80.4436 67.0339Z" fill="#FFB7B7"/>
<path d="M94.5741 75.9896L96.5457 75.339C96.5457 75.339 100.489 76.9656 100.489 79.8934C100.489 82.8212 101.146 94.5325 101.146 94.5325L92.2738 95.5085L94.5741 75.9896Z" fill="#CBCBCB"/>
<path d="M60.1875 139.474C60.978 138.573 61.4242 137.413 61.445 136.205C61.4658 134.998 61.0598 133.823 60.3009 132.894L65.6513 87.3149C65.7037 86.2401 65.3348 85.188 64.6254 84.3896C63.916 83.5911 62.9242 83.1116 61.8676 83.0562C60.8111 83.0009 59.7761 83.3741 58.9898 84.0942C58.2035 84.8142 57.7301 85.8221 57.6736 86.8967C57.6729 86.9116 57.6722 86.9265 57.6716 86.9414L52.8851 132.569C52.7115 132.746 52.5515 132.937 52.4066 133.139C52.0227 133.679 51.7471 134.291 51.5956 134.939C51.444 135.587 51.4195 136.26 51.5235 136.918C51.6274 137.576 51.8577 138.206 52.2013 138.774C52.5449 139.341 52.995 139.834 53.5259 140.225C53.5809 140.265 53.6367 140.305 53.6933 140.343C54.308 140.757 55.0051 141.027 55.7346 141.134C56.4641 141.241 57.2079 141.183 57.9127 140.963C58.7927 140.692 59.5806 140.176 60.1875 139.474Z" fill="#FFB7B7"/>
<path d="M65.0647 94.322L56.1922 93.3461C56.1922 93.3461 56.8495 81.6348 56.8495 78.7069C56.8495 75.7791 60.7928 74.1525 60.7928 74.1525L62.7644 74.8032L65.0647 94.322Z" fill="#CBCBCB"/>
<path d="M93.6088 110.345C93.6088 110.345 101.087 124.005 101.087 140.572C101.087 157.14 101.738 233.154 101.738 233.154C101.738 233.154 91.983 237.702 86.1303 232.18L80.9279 148.044L60.4434 230.556C60.4434 230.556 50.6889 232.505 46.1368 229.256L54.9159 171.758C54.9159 171.758 58.4925 117.833 68.247 113.935C78.0015 110.037 93.6088 110.345 93.6088 110.345Z" fill="#2F2E41"/>
<path d="M91.8872 56.3559C88.0968 53.6763 85.0285 50.5898 82.9989 46.9184C82.9989 46.9184 76.0427 54.4684 71.7918 54.8459C67.5408 55.2234 71.4053 45.7859 71.4053 45.7859L79.1343 43.8983L86.4769 44.6533L92.2737 48.4284L91.8872 56.3559Z" fill="#2F2E41"/>
<path d="M69.9786 72.3908C69.9786 72.3908 69.6753 72.2267 87.8136 72.8926L95.4051 74.9998L96.4141 75.2798C96.4141 75.2798 95.4586 94.5403 92.9106 98.0714C90.3626 101.602 90.9996 103.528 91.6366 103.849C92.2736 104.171 93.8661 103.528 92.9106 105.134C91.9551 106.739 90.6811 105.776 91.9551 106.739C93.2291 107.702 93.8661 111.233 93.8661 111.233L65.8382 115.085C65.8382 115.085 64.8827 102.565 62.3347 96.1453C59.7867 89.7252 59.1497 87.1571 59.1497 87.1571L61.0607 74.3168L69.9786 72.3908Z" fill="#CBCBCB"/>
</svg>
